<?xml version="1.0" encoding="iso-8859-1"?>
<!-- Generator: Adobe Illustrator 19.0.0, SVG Export Plug-In . SVG Version: 6.00 Build 0)  -->
<svg version="1.1" id="Capa_1" xmlns="http://www.w3.org/2000/svg" xmlns:xlink="http://www.w3.org/1999/xlink" x="0px" y="0px"
	 viewBox="0 0 288.059 288.059" style="enable-background:new 0 0 288.059 288.059;" xml:space="preserve">
<g>
	<path d="M89.228,96.571c3.069-1.249,4.546-4.749,3.297-7.818c-2.712-6.667-4.087-13.73-4.087-20.996
		C88.438,37.013,113.451,12,144.196,12s55.758,25.013,55.758,55.757c0,7.267-1.375,14.332-4.088,20.998
		c-1.249,3.069,0.227,6.57,3.296,7.819c0.741,0.302,1.507,0.444,2.26,0.444c2.368,0,4.612-1.412,5.56-3.74
		c3.3-8.11,4.973-16.696,4.973-25.521C211.954,30.396,181.557,0,144.196,0S76.438,30.396,76.438,67.757
		c0,8.823,1.673,17.408,4.972,25.518C82.659,96.344,86.16,97.823,89.228,96.571z"/>
	<path d="M227.369,43.008c0.005,3.311,2.689,6.019,6,6.019h0.008l18.356-0.035c3.314-0.005,5.996-2.695,5.991-6.011
		c-0.005-3.31-2.689-5.954-6-5.954c0,0-0.006,0-0.008,0l-18.356-0.001C230.046,37.03,227.364,39.693,227.369,43.008z"/>
	<path d="M226.253,25.872c1.16,0,2.333-0.337,3.365-1.038l15.184-10.314c2.741-1.861,3.454-5.594,1.592-8.334
		c-1.86-2.741-5.592-3.453-8.334-1.592l-15.184,10.314c-2.741,1.861-3.454,5.594-1.592,8.334
		C222.445,24.951,224.333,25.872,226.253,25.872z"/>
	<path d="M229.665,61.119c-2.745-1.857-6.476-1.133-8.33,1.613c-1.855,2.746-1.133,6.476,1.613,8.33l15.21,10.274
		c1.029,0.696,2.197,1.029,3.353,1.029c1.927,0,3.818-0.926,4.977-2.643c1.856-2.746,1.133-6.476-1.613-8.33L229.665,61.119z"/>
	<path d="M54.691,49.026c3.31,0,5.995-2.69,6-6.001c0.005-3.314-2.678-6.005-5.991-6.011l-18.357,0.012c-0.002,0-0.005,0-0.008,0
		c-3.31,0-5.995,2.651-6,5.962c-0.005,3.314,2.678,5.983,5.991,5.988l18.357,0.05C54.685,49.026,54.688,49.026,54.691,49.026z"/>
	<path d="M43.256,14.52L58.44,24.834c1.032,0.702,2.205,1.038,3.365,1.038c1.921,0,3.809-0.921,4.969-2.63
		c1.862-2.74,1.149-6.473-1.592-8.334L49.999,4.594c-2.74-1.864-6.473-1.149-8.334,1.592C39.802,8.926,40.515,12.658,43.256,14.52z"
		/>
	<path d="M58.394,61.119L43.185,71.394c-2.746,1.854-3.469,5.585-1.613,8.33c1.159,1.717,3.051,2.643,4.978,2.643
		c1.155,0,2.323-0.334,3.353-1.029l15.209-10.274c2.746-1.854,3.469-5.585,1.613-8.33C64.87,59.986,61.139,59.264,58.394,61.119z"/>
	<path d="M245.344,172.932c-3.973-23.739-20.508-26.751-28.642-26.751c-0.267,0-0.524,0.004-0.772,0.01
		c-0.057,0.001-0.112,0.002-0.169,0.002c-2.219,0-4.452-1.036-5.499-2.991c-5.442-10.165-14.302-11.962-20.921-11.962
		c-0.354,0-0.699-0.213-1.038-0.213c-0.04,0-0.044,0-0.084,0c-2.788,0-5.356-1.804-5.356-4.607V60.925
		c0-8.678-6.287-16.837-16.269-16.837c-9.209,0-16.731,7.001-16.731,16.11v65.66c0,3.234-2.439,6.168-5.674,6.168
		c-0.032,0-0.064,0-0.097,0c-3.174,0-5.759-2.696-5.757-5.883l0.015-53.458c0.005-10.518-8.134-15.809-16.272-15.809
		c-8.133,0-16.265,5.237-16.27,15.747c0,0-0.041,101.481-0.037,105.626c0.002,3.695-2.99,5.973-6.027,5.973
		c-1.858,0-3.734-0.855-4.953-2.76l-14.775-23.092c-3.342-5.52-8.199-7.809-13.013-7.809c-10.808-0.001-21.392,11.535-14.098,23.923
		c0.084,0.143,0.164,0.291,0.235,0.44l59.906,109.42c1.095,2.313,3.423,3.713,5.98,3.714l82.675-0.032h0.004
		c3.162,0,5.882-2.162,6.495-5.264l8.26-24.675c0.166-0.838,0.499-1.623,0.969-2.337C240.567,220.585,249.2,195.972,245.344,172.932
		z"/>
</g>
<g>
</g>
<g>
</g>
<g>
</g>
<g>
</g>
<g>
</g>
<g>
</g>
<g>
</g>
<g>
</g>
<g>
</g>
<g>
</g>
<g>
</g>
<g>
</g>
<g>
</g>
<g>
</g>
<g>
</g>
</svg>
