<?xml version="1.0" encoding="iso-8859-1"?>
<!-- Generator: Adobe Illustrator 18.0.0, SVG Export Plug-In . SVG Version: 6.00 Build 0)  -->
<!DOCTYPE svg PUBLIC "-//W3C//DTD SVG 1.1//EN" "http://www.w3.org/Graphics/SVG/1.1/DTD/svg11.dtd">
<svg version="1.1" id="Capa_1" xmlns="http://www.w3.org/2000/svg" xmlns:xlink="http://www.w3.org/1999/xlink" x="0px" y="0px"
	 viewBox="0 0 281.487 281.487" style="enable-background:new 0 0 281.487 281.487;" xml:space="preserve">
<g>
	<path d="M239.422,114.634v46.54c20.088-14.439,34.935-29.424,42.065-37.156C275.582,122.503,260.502,118.781,239.422,114.634z"/>
	<path d="M42.066,161.175v-46.543c-21.092,4.149-36.164,7.87-42.066,9.386C7.13,131.75,21.976,146.736,42.066,161.175z"/>
	<path d="M158.554,113.424c-2.984,2.984-6.537,5.056-10.311,6.227v39.257c0,4.143-3.357,7.5-7.5,7.5c-4.143,0-7.5-3.357-7.5-7.5
		v-39.255c-3.77-1.17-7.318-3.239-10.298-6.218c-6.076-6.076-14.859-9.403-24.6-8.104c-14.927,1.994-28.84,4.239-41.28,6.477v59.451
		c0,46.141,37.538,83.679,83.678,83.679c46.141,0,83.679-37.538,83.679-83.679v-59.45c-12.445-2.24-26.359-4.486-41.28-6.479
		C173.414,104.032,164.611,107.367,158.554,113.424z M112.337,224.797c-2.703,3.135-7.44,3.487-10.577,0.78
		c-14.429-12.446-24.536-28.73-29.229-47.092c-1.025-4.014,1.396-8.099,5.409-9.124c4.019-1.026,8.099,1.397,9.124,5.409
		c3.929,15.375,12.398,29.017,24.492,39.449C114.694,216.925,115.043,221.661,112.337,224.797z M124.761,241.162
		c-4.142,0-7.5-3.358-7.5-7.5c0-4.142,3.358-7.5,7.5-7.5c4.142,0,7.5,3.358,7.5,7.5
		C132.261,237.804,128.904,241.162,124.761,241.162z"/>
	<path d="M96.846,90.397c13.413-1.786,27.133,2.858,36.695,12.419c3.976,3.976,10.428,3.976,14.396,0.011
		c9.571-9.57,23.286-14.215,36.704-12.43c32.844,4.369,66.554,10.771,94.302,17.528c-15.957-22.278-56.7-72.151-107.237-81.199
		c-3.625-0.649-7.342,0.501-9.947,3.106l-13.092,13.092c-4.376,4.376-11.471,4.376-15.847,0l-13.092-13.092
		c-2.604-2.604-6.321-3.755-9.947-3.106C59.244,35.774,18.501,85.648,2.544,107.926C30.32,101.163,63.964,94.771,96.846,90.397z"/>
</g>
<g>
</g>
<g>
</g>
<g>
</g>
<g>
</g>
<g>
</g>
<g>
</g>
<g>
</g>
<g>
</g>
<g>
</g>
<g>
</g>
<g>
</g>
<g>
</g>
<g>
</g>
<g>
</g>
<g>
</g>
</svg>
