<svg xmlns="http://www.w3.org/2000/svg" xmlns:xlink="http://www.w3.org/1999/xlink" version="1.1" x="0px" y="0px" viewBox="0 0 100 125" enable-background="new 0 0 100 100" xml:space="preserve"><path d="M50.159,27.644c-0.083-0.3-0.187-0.585-0.301-0.863l-4.117,21.853l3.203,11.574l4.378-21.133L50.159,27.644z"/><polygon points="56.062,48.971 53.761,40.657 50.173,57.973 "/><path d="M58.459,57.635l-3.088,4.721c-0.607,0.927-1.64,1.479-2.764,1.479c-0.663,0-1.309-0.193-1.871-0.561  c-0.633-0.414-1.073-1.006-1.318-1.66l-0.036,0.175l6.052,21.867c0.907,3.276,3.768,5.343,6.391,4.617  c2.623-0.726,4.015-3.97,3.108-7.246L58.459,57.635z"/><path d="M70.5,4.375c-5.583,0-10.125,4.542-10.125,10.125c0,5.583,4.542,10.125,10.125,10.125S80.625,20.083,80.625,14.5  C80.625,8.917,76.083,4.375,70.5,4.375z"/><path fill="none" stroke="#000000" stroke-linecap="round" stroke-miterlimit="10" d="M25.333,26.06  c0-0.269,1.083-8.594,11.042-9.352"/><path fill="none" stroke="#000000" stroke-linecap="round" stroke-miterlimit="10" d="M27,29.875c0,0-0.75-11.938,12.875-11.438"/><path d="M77.748,22.608c-0.001-0.007-0.001-0.014-0.002-0.021c-1.926,1.727-4.461,2.788-7.246,2.788  c-5.168,0-9.497-3.627-10.597-8.466l-23.936,3.72c-4.366,0.679-7.355,4.768-6.676,9.134c0.011,0.069,0.03,0.133,0.042,0.201  l-9.209,52.101c-0.592,3.347,1.102,6.445,3.782,6.918c2.68,0.474,5.333-1.856,5.924-5.203l8.364-47.317  c0.077-0.01,0.154-0.012,0.232-0.024l3.779-0.587l3.083,11.141l3.906-21.618L49.786,26l-6.455,35.428  c-0.236,1.267,0.729,2.514,2.152,2.78c1.426,0.264,2.773-0.55,3.009-1.817l5.89-28.432l0.677-3.292l0.774-0.792l-0.818,3.985  l13.164-2.046L50.35,59.072c-0.771,1.18-0.414,2.783,0.797,3.576c1.178,0.768,2.852,0.436,3.597-0.702l23.534-35.978  C78.987,24.884,78.732,23.449,77.748,22.608z"/></svg>