<svg xmlns="http://www.w3.org/2000/svg" xmlns:xlink="http://www.w3.org/1999/xlink" version="1.1" x="0px" y="0px" viewBox="0 0 100 100" style="enable-background:new 0 0 100 100;" xml:space="preserve"><style type="text/css">
	.st0{fill:#010101;}
	.st1{fill:#00FBA0;}
	.st2{fill:none;}
</style><g><g><path class="st0" d="M87.4,45.3c-1.4-10.6-4.9-19.4-6.3-22.7c-0.7-1.6-2.2-2.8-3.9-3.2c-10-2.3-20.1-3.1-29.9-2.4    c-8.2,0.6-14.1,2.2-16.9,3c-2,0.6-3.5,2.3-3.9,4.4L26.2,26c0,0,0,0,0,0c-0.3,1.7-1.3,3.1-2.8,4c-3.4,1.9-6.2,4.7-8.2,8    c-2.1,3.4-3.1,7.4-3.1,11.4c0,5.9,2.3,11.4,6.5,15.6c2,2,4.3,3.6,6.9,4.7V73c0,2.2,1.2,4.1,3.1,5.1c1.8,0.9,4.7,1.9,8.9,2    c0.2,0,0.5,0,0.7,0c4.1,0,8.5-0.9,13.2-2.7c0.9,1.2,2,2.3,3.9,3.3c2.3,1.2,5.6,2,10.3,2.5c1.2,0.1,2.3,0.2,3.3,0.2    c3.2,0,6-0.5,8.4-1.5c2.5-1,3.6-2.2,3.8-2.5c0.1-0.1,0.1-0.2,0.2-0.3c3.1-5,5.2-10.8,6.1-17.1C88.1,56.8,88.1,51.2,87.4,45.3z     M83.4,61.5c-0.8,5.7-2.6,10.9-5.4,15.4c-0.3,0.2-1,0.9-2.5,1.4c-1.7,0.7-4.8,1.4-9.5,0.9c-4.1-0.4-7-1.1-8.9-2    c-1.5-0.8-2.2-1.7-3.1-2.9v-2.8V68c1.1,0.2,2.4,0.3,3.6,0.3c1.1,0,2.2-0.1,3.3-0.3c1.1-0.2,1.8-1.2,1.7-2.3    c-0.2-1.1-1.2-1.8-2.3-1.7c-0.9,0.1-1.8,0.2-2.7,0.2c-4.5,0-8.7-1.7-11.8-4.9c-3.2-3.2-4.9-7.4-4.9-11.8c0-3.6,1.1-7.1,3.3-10    c2.1-2.8,5.1-4.9,8.4-6c1.1-0.3,1.6-1.4,1.3-2.5c-0.3-1.1-1.4-1.6-2.5-1.3c-2.1,0.7-4,1.6-5.8,2.9c-0.8,0.6-1.6,1.2-2.4,2    c-1.1-1.4-2.4-2.6-3.8-3.6c-0.9-0.7-2.1-0.5-2.8,0.4c-0.7,0.9-0.5,2.1,0.4,2.8c1.3,1,2.5,2.2,3.5,3.5c-2.4,3.5-3.7,7.6-3.7,11.8    c0,5.5,2.2,10.7,6.1,14.7c2.1,2.1,4.4,3.6,7.1,4.7v4.6v2.1c-4.5,1.7-8.7,2.5-12.4,2.4c-3.4-0.1-5.8-0.9-7.2-1.6    c-0.6-0.3-0.9-0.9-0.9-1.5v-2c1.5,0.3,3.1,0.5,4.7,0.5c1.5,0,3-0.2,4.5-0.4c1.1-0.2,1.8-1.3,1.6-2.4c-0.2-1.1-1.3-1.8-2.4-1.6    c-1.2,0.2-2.4,0.4-3.7,0.4c-4.8,0-9.4-1.9-12.8-5.3c-3.4-3.4-5.3-8-5.3-12.8c0-3.3,0.9-6.5,2.6-9.4c1.6-2.7,4-5,6.8-6.6    c2.6-1.4,4.3-3.9,4.7-6.8l0.3-1.6c0.1-0.6,0.5-1.1,1.1-1.3c2.7-0.8,8.3-2.3,16.1-2.9c9.4-0.7,19,0.1,28.7,2.3    c0.5,0.1,0.9,0.5,1.1,0.9c1.4,3.1,4.7,11.6,6,21.6C84.1,51.3,84.1,56.6,83.4,61.5z"/><path class="st0" d="M65.9,62C66,62,66,62,65.9,62C66,62,66,62,65.9,62z"/><path class="st0" d="M66.4,61.8c-0.2,0.1-0.3,0.1-0.5,0.3c0,0,0,0-0.1,0c-1,0.7-1,1.9-0.5,2.7c0.4,0.5,1,0.9,1.7,0.9    c0.4,0,0.8-0.1,1.1-0.4c1.1-0.7,1.1-2,0.6-2.8C68.3,61.9,67.4,61.4,66.4,61.8z"/><polygon class="st1" points="65.9,62.1 65.9,62.1 65.9,62.1   "/></g></g><rect x="0" class="st2" width="100%" height="100%"/></svg>